<svg width="183" height="50" viewBox="0 0 183 50" fill="none" xmlns="http://www.w3.org/2000/svg">
<path d="M0.28 35.432V32.104H10.264V35.432C10.264 37.928 11.672 40.232 15.64 40.232C19.48 40.232 20.952 38.248 20.952 35.048V1.64H31.32V35.688C31.32 43.816 25.304 49.832 15.768 49.832C5.336 49.832 0.28 43.624 0.28 35.432ZM70.9455 49H40.8655V1.64H70.9455V11.24H51.2335V20.52H68.7055V29.608H51.2335V39.4H70.9455V49ZM89.668 49H79.428V1.64H89.668L109.636 31.784V1.64H119.876V49H109.636L89.668 18.92V49ZM140.109 1.64V49H129.741V1.64H140.109ZM147.367 15.4C147.367 6.824 154.599 0.743999 164.775 0.743999C174.951 0.743999 181.351 6.376 181.351 15.336H171.047C171.047 12.008 168.551 9.96 164.647 9.96C160.423 9.96 157.735 11.88 157.735 15.016C157.735 17.896 159.207 19.304 162.535 20.008L169.639 21.48C178.087 23.208 182.119 27.24 182.119 34.728C182.119 43.88 174.951 49.832 164.071 49.832C153.51 49.832 146.663 44.136 146.663 35.24H156.967C156.967 38.696 159.527 40.616 164.135 40.616C168.807 40.616 171.751 38.76 171.751 35.752C171.751 33.128 170.535 31.784 167.399 31.144L160.167 29.672C151.719 27.944 147.367 23.144 147.367 15.4Z" fill="url(#paint0_linear_33_5)"/>
<defs>
<linearGradient id="paint0_linear_33_5" x1="105.5" y1="4.5" x2="131.5" y2="74.5" gradientUnits="userSpaceOnUse">
<stop stop-color="white"/>
<stop offset="1" stop-color="#139BFD"/>
</linearGradient>
</defs>
</svg>
